<?xml version="1.0" standalone="no"?>
<!DOCTYPE svg PUBLIC "-//W3C//DTD SVG 20010904//EN"
 "http://www.w3.org/TR/2001/REC-SVG-20010904/DTD/svg10.dtd">
<svg version="1.0" xmlns="http://www.w3.org/2000/svg"
 width="72.000000pt" height="72.000000pt" viewBox="0 0 72.000000 72.000000"
 preserveAspectRatio="xMidYMid meet">

<g transform="translate(0.000000,72.000000) scale(0.100000,-0.100000)"
fill="#000000" stroke="none">
<path d="M85 440 l-80 -81 66 -64 c74 -72 96 -79 149 -42 48 32 74 72 74 112
0 30 -10 45 -59 95 -33 33 -62 60 -65 60 -3 0 -41 -36 -85 -80z"/>
<path d="M505 472 c-65 -41 -92 -97 -70 -148 7 -16 36 -51 64 -79 l51 -50 83
83 82 82 -60 60 c-69 69 -104 81 -150 52z"/>
</g>
</svg>
